<svg xmlns="http://www.w3.org/2000/svg" viewBox="0 0 348.44 34.72"><defs><style>.cls-1{fill:#1d1d1b;}.cls-2{fill:#af1917;}</style></defs><g id="Livello_2" data-name="Livello 2"><g id="Livello_1-2" data-name="Livello 1"><path class="cls-1" d="M2.9,5.79H8.2V17.47H20.44V5.79h5.3V34.27h-5.3V21.69H8.2V34.27H2.9Z" transform="translate(-2.9 -5.18)"/><path class="cls-1" d="M30.05,24.35a9.55,9.55,0,0,1,2.75-7.12,9.86,9.86,0,0,1,7.2-2.7,9.26,9.26,0,0,1,6.89,2.54,9.44,9.44,0,0,1,2.5,7v1.8H33.25V22.57H44.33v-.15a4.29,4.29,0,0,0-1-2.93A4.28,4.28,0,0,0,40,18.33a4.38,4.38,0,0,0-3.66,1.61A6.55,6.55,0,0,0,35,24.12v1a6.33,6.33,0,0,0,1.39,4.24,5,5,0,0,0,4,1.63,5.83,5.83,0,0,0,3-.77,6.43,6.43,0,0,0,2-1.84l3.66,2.23a7.46,7.46,0,0,1-3.24,3,11.6,11.6,0,0,1-5.45,1.19q-4.91,0-7.65-2.69A9.55,9.55,0,0,1,30.05,25Z" transform="translate(-2.9 -5.18)"/><path class="cls-1" d="M53,5.18h5.15V34.27H53Z" transform="translate(-2.9 -5.18)"/><path class="cls-1" d="M63.14,5.18h5.15V34.27H63.14Z" transform="translate(-2.9 -5.18)"/><path class="cls-1" d="M72.1,24.35A9.31,9.31,0,0,1,75,17.22a10.55,10.55,0,0,1,7.51-2.69A10.52,10.52,0,0,1,90,17.22a9.36,9.36,0,0,1,2.86,7.13V25A9.35,9.35,0,0,1,90,32.11a10.52,10.52,0,0,1-7.51,2.69A10.55,10.55,0,0,1,75,32.11,9.29,9.29,0,0,1,72.1,25Zm5.24.79a6.15,6.15,0,0,0,1.34,4.16,5.47,5.47,0,0,0,7.63,0,6.12,6.12,0,0,0,1.34-4.18V24.2A6,6,0,0,0,86.29,20a5.47,5.47,0,0,0-7.61,0,6.12,6.12,0,0,0-1.34,4.16Z" transform="translate(-2.9 -5.18)"/><path class="cls-1" d="M97.31,35.74a8.78,8.78,0,0,0,.5-3.07v-3.8h4.69v3.8a8.59,8.59,0,0,1-1,4,10,10,0,0,1-2.59,3.18l-3.11-1.6A9.82,9.82,0,0,0,97.31,35.74Z" transform="translate(-2.9 -5.18)"/><path class="cls-1" d="M118.21,5.79h5.26V34.27h-5.26Z" transform="translate(-2.9 -5.18)"/><path class="cls-1" d="M134.15,8.31a9.4,9.4,0,0,1-1,4.19,10.15,10.15,0,0,1-3,3.6l-3-1.94a9.62,9.62,0,0,0,1.43-2.67A10.11,10.11,0,0,0,129,8.37V5.73h5.11Z" transform="translate(-2.9 -5.18)"/><path class="cls-1" d="M138.47,15.08h4.91l.08,2.56h.12a6.59,6.59,0,0,1,2.55-2.17,7.73,7.73,0,0,1,3.45-.78,7.42,7.42,0,0,1,3.76.9,5.13,5.13,0,0,1,2.25,2.62h.08a7.31,7.31,0,0,1,2.9-2.62,8.6,8.6,0,0,1,3.9-.9,6.73,6.73,0,0,1,4.94,1.86q1.89,1.86,1.89,6.12v11.6h-5.16V22.67a4.3,4.3,0,0,0-.88-3,3.32,3.32,0,0,0-2.49-1,4.17,4.17,0,0,0-2.57.82,5.65,5.65,0,0,0-1.73,2.15V34.27h-5.16V22.69a4.26,4.26,0,0,0-.91-3.05,3.41,3.41,0,0,0-2.52-.92,4.18,4.18,0,0,0-2.53.81,5.25,5.25,0,0,0-1.71,2.16V34.27h-5.17Z" transform="translate(-2.9 -5.18)"/><path class="cls-2" d="M182.47,25.62h5.32v.59a4.05,4.05,0,0,0,1.48,3.4,6.7,6.7,0,0,0,4.15,1.12,6.54,6.54,0,0,0,4.07-1.07,3.43,3.43,0,0,0,1.39-2.88,3.21,3.21,0,0,0-1.27-2.7A18.49,18.49,0,0,0,192,22a17.57,17.57,0,0,1-6.81-3.21,6.83,6.83,0,0,1-2.26-5.46,7.13,7.13,0,0,1,2.79-5.86,11.8,11.8,0,0,1,7.53-2.22,11.45,11.45,0,0,1,7.57,2.37,7.39,7.39,0,0,1,2.82,6v.54h-5.24v-.45a4.17,4.17,0,0,0-1.28-3.15,5.49,5.49,0,0,0-3.85-1.17,6,6,0,0,0-3.76,1,3.21,3.21,0,0,0-1.2,2.66,2.76,2.76,0,0,0,1.3,2.43,21.28,21.28,0,0,0,5.56,2,17.12,17.12,0,0,1,6.79,3.28,7.35,7.35,0,0,1,2.31,5.76,7.29,7.29,0,0,1-2.94,6.13,12.63,12.63,0,0,1-7.86,2.24,13.2,13.2,0,0,1-7.93-2.19,7.32,7.32,0,0,1-3-6.28Z" transform="translate(-2.9 -5.18)"/><path class="cls-2" d="M209.53,23.92a11.89,11.89,0,0,1,6.56-1.68h4.38V21.15a3,3,0,0,0-.8-2.24,3.85,3.85,0,0,0-2.82-.82,4.83,4.83,0,0,0-2.81.67,2,2,0,0,0-.92,1.7v.33h-5v-.37a4.9,4.9,0,0,1,2.48-4.22,11.61,11.61,0,0,1,6.56-1.65,10.49,10.49,0,0,1,6.26,1.63,5.78,5.78,0,0,1,2.25,5v8.49a11.8,11.8,0,0,0,.22,2.35,8.17,8.17,0,0,0,.62,1.92v.31h-5a4.34,4.34,0,0,1-.47-1.15,8.22,8.22,0,0,1-.25-1.47,5.2,5.2,0,0,1-2.37,2.08,9.25,9.25,0,0,1-4.28.89A8.23,8.23,0,0,1,209,33.11a5.25,5.25,0,0,1-2-4.47A5.31,5.31,0,0,1,209.53,23.92ZM213,30.35a4.07,4.07,0,0,0,2.67.73A5.37,5.37,0,0,0,219,29.94a3.36,3.36,0,0,0,1.47-2.71V25.41h-3.58a7,7,0,0,0-3.57.73,2.37,2.37,0,0,0-1.22,2.15A2.55,2.55,0,0,0,213,30.35Z" transform="translate(-2.9 -5.18)"/><path class="cls-2" d="M230.59,5.18h5.14V34.27h-5.14Z" transform="translate(-2.9 -5.18)"/><path class="cls-2" d="M243.11,15.08l4.4,11.37a12.42,12.42,0,0,1,.43,1.45c.1.48.2,1.06.29,1.73h.08c.08-.67.16-1.25.26-1.73a7.82,7.82,0,0,1,.46-1.45l4.44-11.37h4.7l-7.79,19.19h-4.73L237.9,15.08Z" transform="translate(-2.9 -5.18)"/><path class="cls-2" d="M261.52,23.92a11.89,11.89,0,0,1,6.56-1.68h4.39V21.15a3.05,3.05,0,0,0-.8-2.24,3.88,3.88,0,0,0-2.82-.82,4.84,4.84,0,0,0-2.82.67,2,2,0,0,0-.92,1.7v.33h-5v-.37a4.9,4.9,0,0,1,2.48-4.22,11.66,11.66,0,0,1,6.56-1.65,10.49,10.49,0,0,1,6.26,1.63,5.78,5.78,0,0,1,2.25,5v8.49a11.78,11.78,0,0,0,.23,2.35,8.18,8.18,0,0,0,.61,1.92v.31h-5a4,4,0,0,1-.47-1.15,7.43,7.43,0,0,1-.26-1.47,5.2,5.2,0,0,1-2.37,2.08,9.22,9.22,0,0,1-4.28.89A8.25,8.25,0,0,1,261,33.11a5.25,5.25,0,0,1-2-4.47A5.31,5.31,0,0,1,261.52,23.92ZM265,30.35a4.07,4.07,0,0,0,2.67.73A5.33,5.33,0,0,0,271,29.94a3.37,3.37,0,0,0,1.48-2.71V25.41h-3.58a7,7,0,0,0-3.57.73,2.36,2.36,0,0,0-1.23,2.15A2.53,2.53,0,0,0,265,30.35Z" transform="translate(-2.9 -5.18)"/><path class="cls-2" d="M280.12,15.08h12.63V19H280.12Zm3.3,1.82,0-.47v-7h5.09V28.15a3,3,0,0,0,.57,2.14,2.24,2.24,0,0,0,1.66.58,4.21,4.21,0,0,0,1-.11,7.35,7.35,0,0,0,.91-.28l0,3.77a7.36,7.36,0,0,1-1.32.37,9.08,9.08,0,0,1-1.92.18,6.15,6.15,0,0,1-4.36-1.51c-1.08-1-1.63-2.62-1.63-4.85Z" transform="translate(-2.9 -5.18)"/><path class="cls-2" d="M294.43,24.35a9.31,9.31,0,0,1,2.88-7.13,11.83,11.83,0,0,1,15,0,9.33,9.33,0,0,1,2.86,7.13V25a9.31,9.31,0,0,1-2.86,7.13,11.83,11.83,0,0,1-15,0A9.29,9.29,0,0,1,294.43,25Zm5.25.79A6.1,6.1,0,0,0,301,29.3a5.46,5.46,0,0,0,7.62,0A6.12,6.12,0,0,0,310,25.12V24.2A6,6,0,0,0,308.62,20a5.46,5.46,0,0,0-7.6,0,6.07,6.07,0,0,0-1.34,4.16Z" transform="translate(-2.9 -5.18)"/><path class="cls-2" d="M319,15.08h4.95l.1,2.49h.08a6.49,6.49,0,0,1,1.94-2.11,4.84,4.84,0,0,1,2.83-.87,6,6,0,0,1,1,.08,4.05,4.05,0,0,1,.68.16v4.46a7.68,7.68,0,0,0-.9-.15,8.85,8.85,0,0,0-.93-.05,4.66,4.66,0,0,0-2.71.85,5,5,0,0,0-1.79,2.18V34.27H319Z" transform="translate(-2.9 -5.18)"/><path class="cls-2" d="M332,24.35a9.52,9.52,0,0,1,2.76-7.12,9.86,9.86,0,0,1,7.2-2.7,9.23,9.23,0,0,1,6.88,2.54,9.45,9.45,0,0,1,2.51,7v1.8H335.2V22.57h11.07v-.15a4.25,4.25,0,0,0-1-2.93,4.24,4.24,0,0,0-3.33-1.16,4.38,4.38,0,0,0-3.67,1.61A6.6,6.6,0,0,0,337,24.12v1a6.28,6.28,0,0,0,1.39,4.24,5,5,0,0,0,4,1.63,5.77,5.77,0,0,0,3-.77,6.36,6.36,0,0,0,2-1.84l3.65,2.23a7.49,7.49,0,0,1-3.23,3,11.63,11.63,0,0,1-5.45,1.19c-3.28,0-5.82-.9-7.65-2.69A9.52,9.52,0,0,1,332,25Z" transform="translate(-2.9 -5.18)"/></g></g></svg>