<svg xmlns="http://www.w3.org/2000/svg" viewBox="0 0 389.71 34.72"><defs><style>.cls-1{fill:#1d1d1b;}.cls-2{fill:#008cc2;}</style></defs><g id="Livello_2" data-name="Livello 2"><g id="Livello_1-2" data-name="Livello 1"><path class="cls-1" d="M42.11,5.79h5.3V17.47H59.65V5.79H65V34.27h-5.3V21.69H47.41V34.27h-5.3Z" transform="translate(0 -5.18)"/><path class="cls-1" d="M69.26,24.35A9.55,9.55,0,0,1,72,17.23a9.86,9.86,0,0,1,7.2-2.7,9.26,9.26,0,0,1,6.89,2.54,9.44,9.44,0,0,1,2.5,7v1.8H72.46V22.57H83.54v-.15a4.29,4.29,0,0,0-1-2.93,4.28,4.28,0,0,0-3.34-1.16,4.38,4.38,0,0,0-3.66,1.61,6.61,6.61,0,0,0-1.27,4.18v1a6.33,6.33,0,0,0,1.39,4.24,5,5,0,0,0,4,1.63,5.83,5.83,0,0,0,3-.77,6.43,6.43,0,0,0,2-1.84l3.66,2.23a7.46,7.46,0,0,1-3.24,3,11.6,11.6,0,0,1-5.45,1.19q-4.9,0-7.64-2.69A9.52,9.52,0,0,1,69.26,25Z" transform="translate(0 -5.18)"/><path class="cls-1" d="M92.22,5.18h5.15V34.27H92.22Z" transform="translate(0 -5.18)"/><path class="cls-1" d="M102.35,5.18h5.15V34.27h-5.15Z" transform="translate(0 -5.18)"/><path class="cls-1" d="M111.31,24.35a9.31,9.31,0,0,1,2.88-7.13,11.83,11.83,0,0,1,15,0,9.36,9.36,0,0,1,2.86,7.13V25a9.35,9.35,0,0,1-2.86,7.13,11.83,11.83,0,0,1-15,0A9.29,9.29,0,0,1,111.31,25Zm5.25.79a6.1,6.1,0,0,0,1.34,4.16,5.46,5.46,0,0,0,7.62,0,6.12,6.12,0,0,0,1.34-4.18V24.2A6,6,0,0,0,125.5,20a5.46,5.46,0,0,0-7.6,0,6.07,6.07,0,0,0-1.34,4.16Z" transform="translate(0 -5.18)"/><path class="cls-1" d="M136.52,35.74a8.78,8.78,0,0,0,.5-3.07v-3.8h4.69v3.8a8.59,8.59,0,0,1-1,4,10,10,0,0,1-2.59,3.18L135,38.3A9.82,9.82,0,0,0,136.52,35.74Z" transform="translate(0 -5.18)"/><path class="cls-1" d="M157.38,7.26a3,3,0,0,1,2.25-.8,3.05,3.05,0,0,1,2.28.79,2.75,2.75,0,0,1,.77,2,2.71,2.71,0,0,1-.79,2,3.59,3.59,0,0,1-4.53,0,2.73,2.73,0,0,1-.78-2A2.65,2.65,0,0,1,157.38,7.26Zm-.31,7.82h5.16V34.27h-5.16Z" transform="translate(0 -5.18)"/><path class="cls-1" d="M172.52,8.31a9.4,9.4,0,0,1-1,4.19,10.15,10.15,0,0,1-3,3.6l-3-1.94a9.62,9.62,0,0,0,1.43-2.67,10.11,10.11,0,0,0,.48-3.12V5.73h5.11Z" transform="translate(0 -5.18)"/><path class="cls-1" d="M176.84,15.08h4.91l.08,2.56H182a6.59,6.59,0,0,1,2.55-2.17,7.73,7.73,0,0,1,3.45-.78,7.42,7.42,0,0,1,3.76.9A5.13,5.13,0,0,1,194,18.21H194a7.31,7.31,0,0,1,2.9-2.62,8.57,8.57,0,0,1,3.9-.9,6.73,6.73,0,0,1,4.94,1.86q1.89,1.86,1.89,6.12v11.6h-5.16V22.67a4.3,4.3,0,0,0-.88-3,3.32,3.32,0,0,0-2.49-1,4.17,4.17,0,0,0-2.57.82,5.65,5.65,0,0,0-1.73,2.15V34.27h-5.17V22.69a4.26,4.26,0,0,0-.9-3.05,3.41,3.41,0,0,0-2.52-.92,4.18,4.18,0,0,0-2.53.81A5.25,5.25,0,0,0,182,21.69V34.27h-5.17Z" transform="translate(0 -5.18)"/><path class="cls-2" d="M220.83,25.62h5.33v.59a4.08,4.08,0,0,0,1.48,3.4,6.7,6.7,0,0,0,4.15,1.12,6.54,6.54,0,0,0,4.07-1.07,3.46,3.46,0,0,0,1.39-2.88,3.21,3.21,0,0,0-1.27-2.7A18.49,18.49,0,0,0,230.34,22a17.57,17.57,0,0,1-6.81-3.21,6.83,6.83,0,0,1-2.26-5.46,7.13,7.13,0,0,1,2.79-5.86,11.8,11.8,0,0,1,7.53-2.22,11.41,11.41,0,0,1,7.56,2.37,7.37,7.37,0,0,1,2.83,6v.54h-5.24v-.45a4.17,4.17,0,0,0-1.28-3.15,5.51,5.51,0,0,0-3.85-1.17,6,6,0,0,0-3.76,1,3.21,3.21,0,0,0-1.2,2.66A2.76,2.76,0,0,0,228,15.4a21.28,21.28,0,0,0,5.56,2,17.12,17.12,0,0,1,6.79,3.28,7.38,7.38,0,0,1,2.31,5.76,7.29,7.29,0,0,1-2.94,6.13,12.63,12.63,0,0,1-7.86,2.24,13.2,13.2,0,0,1-7.93-2.19,7.35,7.35,0,0,1-3-6.28Z" transform="translate(0 -5.18)"/><path class="cls-2" d="M247.9,23.92a11.89,11.89,0,0,1,6.56-1.68h4.38V21.15a3.05,3.05,0,0,0-.8-2.24,3.86,3.86,0,0,0-2.82-.82,4.83,4.83,0,0,0-2.81.67,2,2,0,0,0-.92,1.7v.33h-5v-.37a4.89,4.89,0,0,1,2.47-4.22,11.67,11.67,0,0,1,6.57-1.65,10.49,10.49,0,0,1,6.26,1.63,5.78,5.78,0,0,1,2.25,5v8.49a11.8,11.8,0,0,0,.22,2.35,8.17,8.17,0,0,0,.62,1.92v.31h-5a4.34,4.34,0,0,1-.47-1.15,8.22,8.22,0,0,1-.25-1.47,5.2,5.2,0,0,1-2.37,2.08,9.25,9.25,0,0,1-4.28.89,8.23,8.23,0,0,1-5.09-1.51,5.25,5.25,0,0,1-2-4.47A5.32,5.32,0,0,1,247.9,23.92Zm3.44,6.43a4.07,4.07,0,0,0,2.67.73,5.37,5.37,0,0,0,3.36-1.14,3.36,3.36,0,0,0,1.47-2.71V25.41h-3.58a7,7,0,0,0-3.57.73,2.37,2.37,0,0,0-1.22,2.15A2.55,2.55,0,0,0,251.34,30.35Z" transform="translate(0 -5.18)"/><path class="cls-2" d="M269,5.18h5.14V34.27H269Z" transform="translate(0 -5.18)"/><path class="cls-2" d="M281.47,15.08l4.41,11.37a12.42,12.42,0,0,1,.43,1.45c.1.48.2,1.06.29,1.73h.08c.08-.67.16-1.25.26-1.73a7.82,7.82,0,0,1,.46-1.45l4.44-11.37h4.7l-7.79,19.19H284l-7.75-19.19Z" transform="translate(0 -5.18)"/><path class="cls-2" d="M299.89,23.92a11.89,11.89,0,0,1,6.56-1.68h4.38V21.15a3,3,0,0,0-.8-2.24,3.84,3.84,0,0,0-2.81-.82,4.84,4.84,0,0,0-2.82.67,2,2,0,0,0-.92,1.7v.33h-5v-.37a4.9,4.9,0,0,1,2.48-4.22,11.63,11.63,0,0,1,6.56-1.65,10.49,10.49,0,0,1,6.26,1.63,5.78,5.78,0,0,1,2.25,5v8.49a11.8,11.8,0,0,0,.22,2.35,8.17,8.17,0,0,0,.62,1.92v.31h-5a4.34,4.34,0,0,1-.47-1.15,8.22,8.22,0,0,1-.25-1.47,5.2,5.2,0,0,1-2.37,2.08,9.25,9.25,0,0,1-4.28.89,8.25,8.25,0,0,1-5.09-1.51,5.25,5.25,0,0,1-2-4.47A5.31,5.31,0,0,1,299.89,23.92Zm3.44,6.43a4.07,4.07,0,0,0,2.67.73,5.35,5.35,0,0,0,3.36-1.14,3.36,3.36,0,0,0,1.47-2.71V25.41h-3.57a7,7,0,0,0-3.57.73,2.36,2.36,0,0,0-1.23,2.15A2.55,2.55,0,0,0,303.33,30.35Z" transform="translate(0 -5.18)"/><path class="cls-2" d="M318.48,15.08h12.64V19H318.48Zm3.31,1.82,0-.47v-7h5.09V28.15a3,3,0,0,0,.57,2.14,2.24,2.24,0,0,0,1.66.58,4.28,4.28,0,0,0,1-.11,7.35,7.35,0,0,0,.91-.28l0,3.77a7.36,7.36,0,0,1-1.32.37,9.08,9.08,0,0,1-1.92.18,6.15,6.15,0,0,1-4.36-1.51q-1.64-1.5-1.63-4.85Z" transform="translate(0 -5.18)"/><path class="cls-2" d="M332.8,24.35a9.31,9.31,0,0,1,2.88-7.13,11.83,11.83,0,0,1,15,0,9.33,9.33,0,0,1,2.86,7.13V25a9.31,9.31,0,0,1-2.86,7.13,11.83,11.83,0,0,1-15,0A9.29,9.29,0,0,1,332.8,25Zm5.24.79a6.15,6.15,0,0,0,1.34,4.16,5.47,5.47,0,0,0,7.63,0,6.12,6.12,0,0,0,1.34-4.18V24.2A6,6,0,0,0,347,20a5.47,5.47,0,0,0-7.61,0A6.12,6.12,0,0,0,338,24.2Z" transform="translate(0 -5.18)"/><path class="cls-2" d="M357.35,15.08h4.95l.1,2.49h.08a6.49,6.49,0,0,1,1.94-2.11,4.81,4.81,0,0,1,2.83-.87,6,6,0,0,1,1,.08,4.05,4.05,0,0,1,.68.16v4.46a7.68,7.68,0,0,0-.9-.15,8.9,8.9,0,0,0-.94-.05,4.65,4.65,0,0,0-2.7.85,5,5,0,0,0-1.79,2.18V34.27h-5.21Z" transform="translate(0 -5.18)"/><path class="cls-2" d="M370.36,24.35a9.52,9.52,0,0,1,2.76-7.12,9.86,9.86,0,0,1,7.2-2.7,9.23,9.23,0,0,1,6.88,2.54,9.45,9.45,0,0,1,2.51,7v1.8H373.57V22.57h11.07v-.15a4.25,4.25,0,0,0-1-2.93,4.24,4.24,0,0,0-3.33-1.16,4.38,4.38,0,0,0-3.67,1.61,6.6,6.6,0,0,0-1.26,4.18v1a6.28,6.28,0,0,0,1.39,4.24,5,5,0,0,0,4,1.63,5.77,5.77,0,0,0,3-.77,6.33,6.33,0,0,0,2-1.84l3.66,2.23a7.49,7.49,0,0,1-3.23,3,11.63,11.63,0,0,1-5.45,1.19q-4.92,0-7.65-2.69A9.52,9.52,0,0,1,370.36,25Z" transform="translate(0 -5.18)"/><circle class="cls-2" cx="13.07" cy="16.02" r="13.07"/></g></g></svg>