<svg xmlns="http://www.w3.org/2000/svg" viewBox="0 0 394.65 37.66"><defs><style>.cls-1{fill:#af1917;}.cls-2{fill:#696969;}</style></defs><g id="Livello_2" data-name="Livello 2"><g id="Livello_1-2" data-name="Livello 1"><path class="cls-1" d="M2.9,5.79H8.2V30.08H20.79v4.19H2.9Z" transform="translate(-2.9 -5.18)"/><path class="cls-1" d="M25.44,23.92A11.89,11.89,0,0,1,32,22.24h4.38V21.15a3,3,0,0,0-.8-2.24,3.85,3.85,0,0,0-2.82-.82,4.83,4.83,0,0,0-2.81.67,2,2,0,0,0-.92,1.7v.33H24v-.37a4.9,4.9,0,0,1,2.48-4.22A11.63,11.63,0,0,1,33,14.55a10.49,10.49,0,0,1,6.26,1.63,5.78,5.78,0,0,1,2.25,5v8.49A11.8,11.8,0,0,0,41.77,32,8.17,8.17,0,0,0,42.39,34v.31h-5a4.34,4.34,0,0,1-.47-1.15,8.22,8.22,0,0,1-.25-1.47,5.2,5.2,0,0,1-2.37,2.08,9.25,9.25,0,0,1-4.28.89,8.23,8.23,0,0,1-5.09-1.51,5.25,5.25,0,0,1-2-4.47A5.31,5.31,0,0,1,25.44,23.92Zm3.44,6.43a4.07,4.07,0,0,0,2.67.73,5.37,5.37,0,0,0,3.36-1.14,3.36,3.36,0,0,0,1.47-2.71V25.41H32.8a7,7,0,0,0-3.57.73A2.37,2.37,0,0,0,28,28.29,2.55,2.55,0,0,0,28.88,30.35Z" transform="translate(-2.9 -5.18)"/><path class="cls-1" d="M46.44,15.08h4.93l.08,2.51h.09A5.75,5.75,0,0,1,54,15.48a8.37,8.37,0,0,1,3.7-.79,7.34,7.34,0,0,1,5.08,1.72q1.93,1.72,1.94,6V34.27H59.58V22.51a3.86,3.86,0,0,0-.92-2.94,3.67,3.67,0,0,0-2.6-.85,4.7,4.7,0,0,0-2.66.8,5.11,5.11,0,0,0-1.8,2.17V34.27H46.44Z" transform="translate(-2.9 -5.18)"/><path class="cls-1" d="M71.48,36.7a9.17,9.17,0,0,0,2.57,1.48,9.52,9.52,0,0,0,3.69.71A5,5,0,0,0,83,33.33V32a6.32,6.32,0,0,1-2.38,1.94,8.95,8.95,0,0,1-10-1.94,10.09,10.09,0,0,1-2.38-7v-.63a10.2,10.2,0,0,1,2.35-7,8.06,8.06,0,0,1,6.39-2.7,8,8,0,0,1,3.62.82,5.47,5.47,0,0,1,2.37,2.06h.06l.11-2.49h4.89V33c0,3.15-.93,5.58-2.8,7.27a10.47,10.47,0,0,1-7.25,2.53,14.59,14.59,0,0,1-4.92-.8,13.27,13.27,0,0,1-3.75-2Zm3.28-7.54a4.43,4.43,0,0,0,3.72,1.57,4.56,4.56,0,0,0,2.83-.9A5.46,5.46,0,0,0,83,27.76V21.65a4.72,4.72,0,0,0-4.58-3,4.4,4.4,0,0,0-3.69,1.58,6.45,6.45,0,0,0-1.22,4.06v.82A6.42,6.42,0,0,0,74.76,29.16Z" transform="translate(-2.9 -5.18)"/><path class="cls-1" d="M92.86,15.08H98V26.62a4.21,4.21,0,0,0,1,3.13,3.54,3.54,0,0,0,2.55.9,4.56,4.56,0,0,0,2.67-.82A5.14,5.14,0,0,0,106,27.68V15.08h5.15V34.27h-4.89l-.08-2.48h-.1a6.38,6.38,0,0,1-2.6,2.12,8.66,8.66,0,0,1-3.66.77,7,7,0,0,1-5-1.84Q92.85,31,92.86,26.72Z" transform="translate(-2.9 -5.18)"/><path class="cls-1" d="M117.51,23.92a11.92,11.92,0,0,1,6.57-1.68h4.38V21.15a3.05,3.05,0,0,0-.8-2.24,3.88,3.88,0,0,0-2.82-.82,4.84,4.84,0,0,0-2.82.67,2,2,0,0,0-.92,1.7v.33h-5v-.37a4.89,4.89,0,0,1,2.47-4.22,11.66,11.66,0,0,1,6.56-1.65,10.47,10.47,0,0,1,6.26,1.63,5.78,5.78,0,0,1,2.25,5v8.49a11.78,11.78,0,0,0,.23,2.35,8.18,8.18,0,0,0,.61,1.92v.31h-5a4,4,0,0,1-.47-1.15,8.24,8.24,0,0,1-.26-1.47,5.17,5.17,0,0,1-2.36,2.08,9.29,9.29,0,0,1-4.29.89A8.19,8.19,0,0,1,117,33.11a5.23,5.23,0,0,1-2-4.47A5.31,5.31,0,0,1,117.51,23.92ZM121,30.35a4.07,4.07,0,0,0,2.67.73A5.33,5.33,0,0,0,127,29.94a3.35,3.35,0,0,0,1.48-2.71V25.41h-3.58a7,7,0,0,0-3.57.73,2.35,2.35,0,0,0-1.22,2.15A2.55,2.55,0,0,0,121,30.35Z" transform="translate(-2.9 -5.18)"/><path class="cls-1" d="M140.55,36.7a9.17,9.17,0,0,0,2.57,1.48,9.52,9.52,0,0,0,3.69.71,5,5,0,0,0,5.3-5.56V32a6.32,6.32,0,0,1-2.38,1.94A8.95,8.95,0,0,1,139.78,32a10.09,10.09,0,0,1-2.38-7v-.63a10.2,10.2,0,0,1,2.35-7,8.06,8.06,0,0,1,6.39-2.7,8,8,0,0,1,3.62.82,5.47,5.47,0,0,1,2.37,2.06h.06l.11-2.49h4.89V33c0,3.15-.93,5.58-2.8,7.27a10.45,10.45,0,0,1-7.25,2.53,14.59,14.59,0,0,1-4.92-.8,13.27,13.27,0,0,1-3.75-2Zm3.28-7.54a4.43,4.43,0,0,0,3.72,1.57,4.54,4.54,0,0,0,2.83-.9,5.37,5.37,0,0,0,1.71-2.07V21.65a4.78,4.78,0,0,0-1.71-2.17,4.84,4.84,0,0,0-2.87-.84,4.4,4.4,0,0,0-3.69,1.58,6.45,6.45,0,0,0-1.22,4.06v.82A6.42,6.42,0,0,0,143.83,29.16Z" transform="translate(-2.9 -5.18)"/><path class="cls-1" d="M161.09,24.35a9.55,9.55,0,0,1,2.75-7.12,9.86,9.86,0,0,1,7.2-2.7,9.26,9.26,0,0,1,6.89,2.54,9.44,9.44,0,0,1,2.5,7v1.8H164.29V22.57h11.08v-.15a4.29,4.29,0,0,0-1-2.93A4.28,4.28,0,0,0,171,18.33a4.38,4.38,0,0,0-3.66,1.61,6.55,6.55,0,0,0-1.27,4.18v1a6.33,6.33,0,0,0,1.39,4.24,5,5,0,0,0,4,1.63,5.77,5.77,0,0,0,3-.77,6.36,6.36,0,0,0,2-1.84l3.66,2.23a7.46,7.46,0,0,1-3.24,3,11.6,11.6,0,0,1-5.45,1.19q-4.91,0-7.65-2.69A9.55,9.55,0,0,1,161.09,25Z" transform="translate(-2.9 -5.18)"/><path class="cls-1" d="M187.85,28.07v.33a2.38,2.38,0,0,0,1.09,2.2,5.63,5.63,0,0,0,3,.68,5.51,5.51,0,0,0,2.9-.62,1.88,1.88,0,0,0,1-1.65,1.66,1.66,0,0,0-1-1.62,18.93,18.93,0,0,0-4.26-1.06,11.63,11.63,0,0,1-5.33-2.12,4.75,4.75,0,0,1-1.69-3.79,5,5,0,0,1,2.27-4.3A10.59,10.59,0,0,1,192,14.53a10.25,10.25,0,0,1,6.23,1.71,5.35,5.35,0,0,1,2.32,4.55v.38h-5v-.4a2.29,2.29,0,0,0-.91-2,4.59,4.59,0,0,0-2.71-.66,5.3,5.3,0,0,0-2.6.53,1.55,1.55,0,0,0-.82,1.37,1.6,1.6,0,0,0,.95,1.47,16.94,16.94,0,0,0,4.31,1.05,11.82,11.82,0,0,1,5.42,2.06A4.75,4.75,0,0,1,201,28.48a5.43,5.43,0,0,1-2.31,4.65c-1.54,1.11-3.77,1.67-6.71,1.67a11.35,11.35,0,0,1-6.71-1.7,5.6,5.6,0,0,1-2.36-4.76V28Z" transform="translate(-2.9 -5.18)"/><path class="cls-2" d="M215.75,23.92a11.89,11.89,0,0,1,6.56-1.68h4.38V21.15a3,3,0,0,0-.8-2.24,3.84,3.84,0,0,0-2.81-.82,4.84,4.84,0,0,0-2.82.67,2,2,0,0,0-.92,1.7v.33h-5v-.37a4.9,4.9,0,0,1,2.48-4.22,11.63,11.63,0,0,1,6.56-1.65,10.49,10.49,0,0,1,6.26,1.63,5.78,5.78,0,0,1,2.25,5v8.49a11.8,11.8,0,0,0,.22,2.35A8.17,8.17,0,0,0,232.7,34v.31h-5a4.34,4.34,0,0,1-.47-1.15,8.22,8.22,0,0,1-.25-1.47,5.2,5.2,0,0,1-2.37,2.08,9.25,9.25,0,0,1-4.28.89,8.25,8.25,0,0,1-5.09-1.51,5.25,5.25,0,0,1-2-4.47A5.31,5.31,0,0,1,215.75,23.92Zm3.44,6.43a4.07,4.07,0,0,0,2.67.73,5.37,5.37,0,0,0,3.36-1.14,3.36,3.36,0,0,0,1.47-2.71V25.41h-3.58a7,7,0,0,0-3.57.73,2.37,2.37,0,0,0-1.22,2.15A2.55,2.55,0,0,0,219.19,30.35Z" transform="translate(-2.9 -5.18)"/><path class="cls-2" d="M236.75,15.08h4.93l.08,2.51h.09a5.75,5.75,0,0,1,2.47-2.11,8.37,8.37,0,0,1,3.7-.79,7.36,7.36,0,0,1,5.08,1.72q1.93,1.72,1.94,6V34.27h-5.15V22.51a3.86,3.86,0,0,0-.92-2.94,3.67,3.67,0,0,0-2.6-.85,4.7,4.7,0,0,0-2.66.8,5.11,5.11,0,0,0-1.8,2.17V34.27h-5.16Z" transform="translate(-2.9 -5.18)"/><path class="cls-2" d="M258.64,24.35a10,10,0,0,1,2.44-6.94,9,9,0,0,1,10-2,6.05,6.05,0,0,1,2.33,1.88V5.18h5.1V34.27h-4.89l-.12-2.5h0a5.65,5.65,0,0,1-2.29,2.06,7.72,7.72,0,0,1-3.64.83A8.15,8.15,0,0,1,261,31.94a10.24,10.24,0,0,1-2.35-7Zm6.47,4.84a4.4,4.4,0,0,0,3.68,1.56,4.58,4.58,0,0,0,2.85-.9,5.46,5.46,0,0,0,1.71-2.07V21.54a5.13,5.13,0,0,0-1.7-2.07,4.75,4.75,0,0,0-2.86-.83,4.43,4.43,0,0,0-3.68,1.55,6.37,6.37,0,0,0-1.23,4.09v.82A6.45,6.45,0,0,0,265.11,29.19Z" transform="translate(-2.9 -5.18)"/><path class="cls-1" d="M290,5.79h22.6V10H304V34.27H298.7V10H290Z" transform="translate(-2.9 -5.18)"/><path class="cls-1" d="M311.86,24.35a9.31,9.31,0,0,1,2.88-7.13,11.83,11.83,0,0,1,15,0,9.33,9.33,0,0,1,2.86,7.13V25a9.31,9.31,0,0,1-2.86,7.13,11.83,11.83,0,0,1-15,0A9.29,9.29,0,0,1,311.86,25Zm5.25.79a6.1,6.1,0,0,0,1.34,4.16,5.46,5.46,0,0,0,7.62,0,6.12,6.12,0,0,0,1.34-4.18V24.2A6.07,6.07,0,0,0,326.06,20a4.85,4.85,0,0,0-3.81-1.54,4.78,4.78,0,0,0-3.8,1.54,6.07,6.07,0,0,0-1.34,4.16Z" transform="translate(-2.9 -5.18)"/><path class="cls-1" d="M335.3,24.35a9.33,9.33,0,0,1,2.87-7.13,11.84,11.84,0,0,1,15,0,9.36,9.36,0,0,1,2.85,7.13V25a9.34,9.34,0,0,1-2.85,7.13,11.84,11.84,0,0,1-15,0A9.32,9.32,0,0,1,335.3,25Zm5.24.79a6.15,6.15,0,0,0,1.34,4.16,4.76,4.76,0,0,0,3.8,1.55,4.81,4.81,0,0,0,3.83-1.55,6.17,6.17,0,0,0,1.34-4.18V24.2A6,6,0,0,0,349.49,20a4.85,4.85,0,0,0-3.81-1.54,4.78,4.78,0,0,0-3.8,1.54,6.12,6.12,0,0,0-1.34,4.16Z" transform="translate(-2.9 -5.18)"/><path class="cls-1" d="M359.91,5.18h5.14V34.27h-5.14Z" transform="translate(-2.9 -5.18)"/><path class="cls-1" d="M373.83,28.07v.33a2.39,2.39,0,0,0,1.1,2.2,5.63,5.63,0,0,0,3,.68,5.51,5.51,0,0,0,2.9-.62,1.87,1.87,0,0,0,1-1.65,1.66,1.66,0,0,0-1-1.62,18.93,18.93,0,0,0-4.26-1.06,11.63,11.63,0,0,1-5.33-2.12,4.72,4.72,0,0,1-1.69-3.79,5,5,0,0,1,2.27-4.3A10.59,10.59,0,0,1,378,14.53a10.25,10.25,0,0,1,6.23,1.71,5.35,5.35,0,0,1,2.32,4.55v.38h-4.95v-.4a2.29,2.29,0,0,0-.91-2,4.61,4.61,0,0,0-2.71-.66,5.27,5.27,0,0,0-2.6.53,1.55,1.55,0,0,0-.82,1.37,1.59,1.59,0,0,0,1,1.47,16.94,16.94,0,0,0,4.31,1.05,11.87,11.87,0,0,1,5.42,2.06A4.75,4.75,0,0,1,387,28.48a5.43,5.43,0,0,1-2.31,4.65c-1.54,1.11-3.77,1.67-6.71,1.67a11.35,11.35,0,0,1-6.71-1.7,5.63,5.63,0,0,1-2.37-4.76V28Z" transform="translate(-2.9 -5.18)"/><path class="cls-1" d="M392,14.58a3,3,0,0,1,2.31-.87,3.12,3.12,0,0,1,2.38.86,3,3,0,0,1,0,4.13,3,3,0,0,1-2.34.88,3.09,3.09,0,0,1-2.36-.87,3,3,0,0,1,0-4.13Zm0,15.07a3,3,0,0,1,2.31-.88,3.09,3.09,0,0,1,2.38.88,3,3,0,0,1,.81,2.1,2.9,2.9,0,0,1-.81,2.07,3.66,3.66,0,0,1-4.7,0,2.91,2.91,0,0,1-.81-2.08A3,3,0,0,1,392,29.65Z" transform="translate(-2.9 -5.18)"/></g></g></svg>