<svg xmlns="http://www.w3.org/2000/svg" viewBox="0 0 502.54 45.13"><defs><style>.cls-1{fill:#008cc2;}.cls-2{fill:#999999;}</style></defs><g id="Livello_2" data-name="Livello 2"><g id="Livello_1-2" data-name="Livello 1"><path class="cls-1" d="M50,37a7.61,7.61,0,0,1-.64,3.12,8.14,8.14,0,0,1-1.72,2.54,8,8,0,0,1-2.54,1.72A7.61,7.61,0,0,1,42,45H13a7.61,7.61,0,0,1-3.12-.64,8.13,8.13,0,0,1-2.55-1.72,8.32,8.32,0,0,1-1.72-2.54A7.77,7.77,0,0,1,5,37v-32A4.78,4.78,0,0,1,5.4,3,4.84,4.84,0,0,1,6.46,1.45,4.84,4.84,0,0,1,8,.39,4.78,4.78,0,0,1,9.94,0H45.07A4.78,4.78,0,0,1,47,.39a4.84,4.84,0,0,1,1.56,1.06A5,5,0,0,1,49.61,3,4.78,4.78,0,0,1,50,4.93ZM7.82,6.32A2.09,2.09,0,0,0,8,7.15a2.15,2.15,0,0,0,.45.66,2.08,2.08,0,0,0,.67.45,1.9,1.9,0,0,0,.83.17,2,2,0,0,0,.82-.17,1.83,1.83,0,0,0,.66-.46,2.16,2.16,0,0,0,.44-.67A2,2,0,0,0,12,6.32V4.93a2,2,0,0,0-.17-.81,2.21,2.21,0,0,0-.44-.68A2,2,0,0,0,10.76,3a2.1,2.1,0,0,0-.82-.16A2,2,0,0,0,9.11,3a2.08,2.08,0,0,0-.67.45A2.12,2.12,0,0,0,8,4.11a2.08,2.08,0,0,0-.17.82Zm0,9.15H9.23V9.84H7.82Zm0,4.91a2.05,2.05,0,0,0,.17.83,2.09,2.09,0,0,0,1.12,1.12,2,2,0,0,0,.83.16,2.1,2.1,0,0,0,.82-.16,2,2,0,0,0,.66-.46,2.21,2.21,0,0,0,.44-.68,2,2,0,0,0,.17-.81V19a2.06,2.06,0,0,0-.17-.81,2.15,2.15,0,0,0-1.11-1.11,2.06,2.06,0,0,0-.81-.17,2,2,0,0,0-.81.17,2.21,2.21,0,0,0-.68.44,1.83,1.83,0,0,0-.46.66,2.11,2.11,0,0,0-.17.82Zm0,9.14H9.23V23.9H7.82ZM9.94,7a.7.7,0,0,1-.5-.2.69.69,0,0,1-.21-.5V4.93a.69.69,0,0,1,1.19-.49.71.71,0,0,1,.2.49V6.32a.73.73,0,0,1-.2.49A.66.66,0,0,1,9.94,7Zm0,14.07a.72.72,0,0,1-.71-.71V19a.74.74,0,0,1,.71-.7.66.66,0,0,1,.48.21.73.73,0,0,1,.2.49v1.41a.71.71,0,0,1-.2.49A.67.67,0,0,1,9.94,21.09ZM12,9.84H10.62v5.63H12Zm.37,14.08a2.14,2.14,0,0,0-1.27.73A2,2,0,0,0,10.62,26v1.4A2,2,0,0,0,11,28.65a2,2,0,0,0,1,.75V25.31A2.87,2.87,0,0,1,12.4,23.92ZM12,34.45a3.8,3.8,0,0,0-1,1.25,3.42,3.42,0,0,0-.38,1.56A3.58,3.58,0,0,0,11,38.83a3.53,3.53,0,0,0,1,1.23Zm29.54,4.93V25.31a1.54,1.54,0,0,0-.1-.51,1.68,1.68,0,0,0-.27-.45,1.81,1.81,0,0,0-.41-.32,1.14,1.14,0,0,0-.51-.13H14.85a1.23,1.23,0,0,0-.82.24,1.3,1.3,0,0,0-.43.58,2.21,2.21,0,0,0-.16.78c0,.28,0,.55,0,.81q0,3.29,0,6.53t0,6.54ZM13.44,6.32a2.08,2.08,0,0,0,.16.83,2.57,2.57,0,0,0,.45.66,2.19,2.19,0,0,0,.67.45,2.09,2.09,0,0,0,1.65,0,2.12,2.12,0,0,0,.68-.45,2.15,2.15,0,0,0,.45-.66,2.08,2.08,0,0,0,.16-.83V4.93a2.07,2.07,0,0,0-.16-.82A2,2,0,0,0,16.37,3a2.21,2.21,0,0,0-1.65,0,2.19,2.19,0,0,0-.67.45,2.51,2.51,0,0,0-.45.68,2.07,2.07,0,0,0-.16.82Zm0,7a2,2,0,0,0,.16.83,2.28,2.28,0,0,0,.46.67,2.24,2.24,0,0,0,.68.45,2.14,2.14,0,0,0,1.52,0V13.44a.9.9,0,0,1-.24.45.66.66,0,0,1-.47.17.68.68,0,0,1-.5-.2.7.7,0,0,1-.2-.5V12a.68.68,0,0,1,.7-.7c.29,0,.47.08.55.25a2,2,0,0,1,.16.61,10.69,10.69,0,0,1,.29-2,2.21,2.21,0,0,0-1-.25,2,2,0,0,0-.83.16,2.62,2.62,0,0,0-.67.45,2.51,2.51,0,0,0-.45.68,2.07,2.07,0,0,0-.16.82Zm0,9.13h1.41V16.88H13.44Zm0,18.27a1.16,1.16,0,0,0,.32.9,2.57,2.57,0,0,0,.85.49.26.26,0,0,0,.14,0H40.16a1.4,1.4,0,0,0,1.41-1.41ZM15.55,7a.68.68,0,0,1-.7-.7V4.93a.7.7,0,0,1,.2-.5.69.69,0,0,1,.5-.21.72.72,0,0,1,.71.71V6.32a.69.69,0,0,1-.21.5A.7.7,0,0,1,15.55,7Zm.8,11.33a2.38,2.38,0,0,0-.09.62v1.41a2.15,2.15,0,0,0,1.44,2,11.82,11.82,0,0,1-.87-2A10.73,10.73,0,0,1,16.35,18.35Zm19.23,4.14a8.54,8.54,0,0,0,1-1.68,9.25,9.25,0,0,0,.53-1.67,11.16,11.16,0,0,0,.22-1.75c0-.6.05-1.24.05-1.92H35.93V12.66H30.3a5.53,5.53,0,0,1-2.19-.44A5.79,5.79,0,0,1,26.33,11a5.52,5.52,0,0,1-1.2-1.79A5.41,5.41,0,0,1,24.69,7a5.46,5.46,0,0,0-2.19.44,5.61,5.61,0,0,0-3.43,5.2v2.81H17.66c0,.69,0,1.34.05,1.93a12.21,12.21,0,0,0,.23,1.73,7.81,7.81,0,0,0,.53,1.66,9.46,9.46,0,0,0,1,1.7h5.29a.32.32,0,0,1,0-.15.64.64,0,0,1,.19-.47.65.65,0,0,1,.47-.2.7.7,0,0,1,.38.13l.39.28a4.17,4.17,0,0,0,.44.29,1.13,1.13,0,0,0,.51.12h.86a1.14,1.14,0,0,0,.52-.12,3.46,3.46,0,0,0,.45-.29l.38-.28a.66.66,0,0,1,.36-.13.76.76,0,0,1,.47.19.58.58,0,0,1,.23.46.45.45,0,0,1,0,.17ZM19.07,5.22l.68-.7a6.4,6.4,0,0,1,.73-.65V2.82H19.07Zm4.21,8.84a1.4,1.4,0,0,1,1.41,1.41v1.41a1.33,1.33,0,0,1-.42,1,1.4,1.4,0,0,1-1,.41,1.38,1.38,0,0,1-1-.41,1.33,1.33,0,0,1-.42-1V15.47a1.37,1.37,0,0,1,.42-1A1.35,1.35,0,0,1,23.28,14.06ZM26.8,28.13v2.8H24v-2.8Zm0,4.2v2.82H24V32.33Zm.68-12.65a1.33,1.33,0,0,1-1-.42,1.32,1.32,0,0,1-.42-1h2.81a1.39,1.39,0,0,1-.41,1A1.37,1.37,0,0,1,27.48,19.68ZM31,28.13v2.8H28.21v-2.8Zm0,4.2v2.82H28.21V32.33Zm.71-18.27a1.33,1.33,0,0,1,1,.42,1.4,1.4,0,0,1,.41,1v1.41a1.4,1.4,0,0,1-1.39,1.39,1.38,1.38,0,0,1-1-.41,1.33,1.33,0,0,1-.42-1V15.47a1.39,1.39,0,0,1,.41-1A1.37,1.37,0,0,1,31.73,14.06Zm4.2-9.13a2,2,0,0,0-.16-.81,2.24,2.24,0,0,0-.45-.68A2.1,2.1,0,0,0,34.65,3a2,2,0,0,0-.81-.16,2.06,2.06,0,0,0-.68.11,11.39,11.39,0,0,1,2.77,2.29ZM37.34,7.2c.21.42.41.83.59,1.23h.82V2.82H37.34Zm0,15.12v.17h1.41V17.33a12.93,12.93,0,0,1-.44,2.56A11.52,11.52,0,0,1,37.34,22.32ZM41.57,12a2,2,0,0,0-.17-.81,2.21,2.21,0,0,0-.46-.68,2.42,2.42,0,0,0-.67-.46,2.07,2.07,0,0,0-.82-.16,2.2,2.2,0,0,0-1,.25c.06.33.12.65.16,1s.08.64.11,1a1.48,1.48,0,0,1,.18-.56.58.58,0,0,1,.54-.22.7.7,0,0,1,.71.7v1.41a.67.67,0,0,1-.21.5.65.65,0,0,1-.5.2.79.79,0,0,1-.45-.13.55.55,0,0,1-.25-.39v1.81a1.92,1.92,0,0,0,.69.12,2.12,2.12,0,0,0,1.5-.61,2,2,0,0,0,.46-.67,2.05,2.05,0,0,0,.17-.83ZM40.16,8.43h1.41V2.82H40.16ZM44.36,19a2.05,2.05,0,0,0-.16-.81,2.15,2.15,0,0,0-.45-.66,2.08,2.08,0,0,0-.67-.45,2,2,0,0,0-1.62,0,2.16,2.16,0,0,0-.67.44,1.83,1.83,0,0,0-.46.66,2,2,0,0,0-.17.82v1.41a1.9,1.9,0,0,0,.17.83,2.08,2.08,0,0,0,.45.67,2,2,0,0,0,1.49.61,2.07,2.07,0,0,0,.82-.16,2,2,0,0,0,.67-.46,2.41,2.41,0,0,0,.44-.68,2,2,0,0,0,.16-.81Zm-2.09,2.12a.69.69,0,0,1-.5-.21.7.7,0,0,1-.2-.5V19a.72.72,0,0,1,.7-.7.68.68,0,0,1,.49.21A.71.71,0,0,1,43,19v1.41a.76.76,0,0,1-.71.71ZM47.18,4.93A2.07,2.07,0,0,0,47,4.11a2.51,2.51,0,0,0-.45-.68A2.12,2.12,0,0,0,45.89,3a2.21,2.21,0,0,0-1.65,0,2,2,0,0,0-.66.46,2.41,2.41,0,0,0-.44.68,2,2,0,0,0-.16.81V6.32a2,2,0,0,0,.16.81,2.36,2.36,0,0,0,.44.67,1.83,1.83,0,0,0,.66.46,2.09,2.09,0,0,0,1.65,0,2.12,2.12,0,0,0,.68-.45A2.57,2.57,0,0,0,47,7.15a2.08,2.08,0,0,0,.16-.83ZM43,15.47h1.38V9.84H43ZM47.18,26a2.15,2.15,0,0,0-.16-.83,2.46,2.46,0,0,0-.45-.67,2.12,2.12,0,0,0-.68-.45,2.08,2.08,0,0,0-.82-.17,2.05,2.05,0,0,0-.83.17,1.83,1.83,0,0,0-.66.46,2.36,2.36,0,0,0-.44.67A2.07,2.07,0,0,0,43,26v1.4a2.07,2.07,0,0,0,.16.82,2.15,2.15,0,0,0,.45.66,2.08,2.08,0,0,0,.67.45,2,2,0,0,0,1.62,0,2.56,2.56,0,0,0,.68-.44,2.18,2.18,0,0,0,.46-.65,2.13,2.13,0,0,0,.16-.84Zm-4.2,14a3.37,3.37,0,0,0,1-1.23,3.57,3.57,0,0,0,.36-1.57A3.41,3.41,0,0,0,44,35.7a3.51,3.51,0,0,0-1-1.25ZM45.07,4.22a.69.69,0,0,1,.5.21.7.7,0,0,1,.2.5V6.32a.68.68,0,0,1-.7.7.68.68,0,0,1-.49-.21.71.71,0,0,1-.22-.49V4.93a.76.76,0,0,1,.71-.71Zm0,21.09a.7.7,0,0,1,.7.71v1.4a.74.74,0,0,1-.7.71.66.66,0,0,1-.49-.22.68.68,0,0,1-.22-.49V26a.68.68,0,0,1,.22-.49A.66.66,0,0,1,45.07,25.31ZM47.18,9.84H45.77v5.63h1.41Zm0,7H45.77v5.61h1.41Z" transform="translate(-5.01 0)"/><path class="cls-1" d="M100.78,31.18l3.11,3.09A3.81,3.81,0,0,1,105,37a3.79,3.79,0,0,1-.3,1.5,3.85,3.85,0,0,1-.81,1.2,3.83,3.83,0,0,1-2.7,1.11H63.83a3.72,3.72,0,0,1-1.5-.3,3.8,3.8,0,0,1-2-2A3.63,3.63,0,0,1,60,37a3.88,3.88,0,0,1,1.12-2.68l3.11-3.09V11.25a4.12,4.12,0,0,1,.33-1.65,4.51,4.51,0,0,1,.9-1.34,4.43,4.43,0,0,1,1.33-.91A4.11,4.11,0,0,1,68.44,7H96.57a4.12,4.12,0,0,1,1.65.33,4.43,4.43,0,0,1,1.33.91,4.92,4.92,0,0,1,.9,1.34,4.12,4.12,0,0,1,.33,1.65Zm.41,6.79a.94.94,0,0,0,.7-.3,1,1,0,0,0,.3-.72.91.91,0,0,0-.3-.68L98,32.33V11.25a1.43,1.43,0,0,0-1.41-1.41H68.44A1.44,1.44,0,0,0,67,11.25V32.33l-3.92,3.94a.94.94,0,0,0-.29.68,1,1,0,0,0,.29.72,1,1,0,0,0,.71.3Zm-5.32-5.64,2.35,2.37a.27.27,0,0,1,.07.2.22.22,0,0,1-.25.25H87.44l.68,1.41H76.88l.7-1.41H67a.25.25,0,0,1-.2-.09.29.29,0,0,1-.08-.18c0-.08.12-.24.35-.48s.48-.5.76-.78.55-.55.82-.8.44-.41.52-.49Zm.7-21.08V30.93H68.44V11.25Z" transform="translate(-5.01 0)"/><path class="cls-1" d="M112.91,8.08h5.3V32.37h12.6v4.19h-17.9Z" transform="translate(-5.01 0)"/><path class="cls-1" d="M135.45,26.21A11.89,11.89,0,0,1,142,24.53h4.39v-1.1a3,3,0,0,0-.81-2.24,3.88,3.88,0,0,0-2.81-.81,4.77,4.77,0,0,0-2.82.67,2,2,0,0,0-.92,1.7v.33h-5v-.37a4.93,4.93,0,0,1,2.48-4.23,11.72,11.72,0,0,1,6.56-1.64,10.56,10.56,0,0,1,6.26,1.62,5.8,5.8,0,0,1,2.25,5V32a11.87,11.87,0,0,0,.22,2.35,8.17,8.17,0,0,0,.62,1.92v.31h-5a4.28,4.28,0,0,1-.47-1.16,8.11,8.11,0,0,1-.25-1.46A5.26,5.26,0,0,1,144.28,36a9.38,9.38,0,0,1-4.28.89,8.25,8.25,0,0,1-5.09-1.51,5.27,5.27,0,0,1-2-4.47A5.31,5.31,0,0,1,135.45,26.21Zm3.44,6.43a4.07,4.07,0,0,0,2.67.73,5.35,5.35,0,0,0,3.36-1.14,3.39,3.39,0,0,0,1.48-2.71V27.7h-3.58a7,7,0,0,0-3.57.73A2.35,2.35,0,0,0,138,30.57,2.56,2.56,0,0,0,138.89,32.64Z" transform="translate(-5.01 0)"/><path class="cls-1" d="M156.45,17.37h4.93l.08,2.5h.1a5.71,5.71,0,0,1,2.46-2.1,8.4,8.4,0,0,1,3.7-.79,7.34,7.34,0,0,1,5.08,1.72q1.94,1.73,1.94,6V36.56h-5.15V24.8a3.9,3.9,0,0,0-.91-2.94,3.7,3.7,0,0,0-2.61-.85,4.73,4.73,0,0,0-2.66.8,5.05,5.05,0,0,0-1.8,2.17V36.56h-5.16Z" transform="translate(-5.01 0)"/><path class="cls-1" d="M181.49,39a9.07,9.07,0,0,0,2.57,1.49,9.52,9.52,0,0,0,3.69.71,5,5,0,0,0,5.3-5.56V34.25a6.32,6.32,0,0,1-2.38,1.94,8.19,8.19,0,0,1-3.61.74,8,8,0,0,1-6.33-2.68,10.06,10.06,0,0,1-2.39-7v-.63a10.16,10.16,0,0,1,2.36-7,8,8,0,0,1,6.38-2.7,7.93,7.93,0,0,1,3.62.82,5.46,5.46,0,0,1,2.37,2.05h.06l.11-2.48h4.89v18q0,4.72-2.8,7.26a10.41,10.41,0,0,1-7.25,2.54,14.35,14.35,0,0,1-4.92-.81,13.06,13.06,0,0,1-3.74-2Zm3.28-7.54A4.44,4.44,0,0,0,188.49,33a4.54,4.54,0,0,0,2.83-.9A5.37,5.37,0,0,0,193,30.05V23.94a4.78,4.78,0,0,0-1.71-2.17,4.84,4.84,0,0,0-2.87-.84,4.42,4.42,0,0,0-3.69,1.57,6.47,6.47,0,0,0-1.22,4.06v.82A6.4,6.4,0,0,0,184.77,31.44Z" transform="translate(-5.01 0)"/><path class="cls-1" d="M202.87,17.37H208V28.91A4.21,4.21,0,0,0,209,32a3.54,3.54,0,0,0,2.55.9,4.51,4.51,0,0,0,2.67-.82A5.2,5.2,0,0,0,216,30V17.37h5.15V36.56h-4.89l-.08-2.49h-.1a6.34,6.34,0,0,1-2.6,2.13,8.66,8.66,0,0,1-3.66.77,7,7,0,0,1-5-1.84c-1.3-1.22-1.94-3.27-1.94-6.12Z" transform="translate(-5.01 0)"/><path class="cls-1" d="M227.53,26.21a11.89,11.89,0,0,1,6.56-1.68h4.38v-1.1a3.08,3.08,0,0,0-.8-2.24,3.93,3.93,0,0,0-2.82-.81,4.81,4.81,0,0,0-2.82.67,2,2,0,0,0-.91,1.7v.33h-5v-.37a4.92,4.92,0,0,1,2.47-4.23,11.74,11.74,0,0,1,6.56-1.64,10.54,10.54,0,0,1,6.26,1.62,5.8,5.8,0,0,1,2.25,5V32a11.86,11.86,0,0,0,.23,2.35,7.73,7.73,0,0,0,.62,1.92v.31h-5A4.28,4.28,0,0,1,239,35.4a8.13,8.13,0,0,1-.26-1.46A5.18,5.18,0,0,1,236.36,36a9.39,9.39,0,0,1-4.29.89A8.22,8.22,0,0,1,227,35.4a5.25,5.25,0,0,1-2-4.47A5.3,5.3,0,0,1,227.53,26.21ZM231,32.64a4.07,4.07,0,0,0,2.67.73A5.33,5.33,0,0,0,237,32.23a3.36,3.36,0,0,0,1.48-2.71V27.7h-3.58a7,7,0,0,0-3.57.73,2.34,2.34,0,0,0-1.22,2.14A2.56,2.56,0,0,0,231,32.64Z" transform="translate(-5.01 0)"/><path class="cls-1" d="M250.56,39a9.07,9.07,0,0,0,2.57,1.49,9.52,9.52,0,0,0,3.69.71,5,5,0,0,0,5.3-5.56V34.25a6.32,6.32,0,0,1-2.38,1.94,8.19,8.19,0,0,1-3.61.74,8,8,0,0,1-6.33-2.68,10.06,10.06,0,0,1-2.39-7v-.63a10.16,10.16,0,0,1,2.36-7,8,8,0,0,1,6.38-2.7,7.93,7.93,0,0,1,3.62.82,5.46,5.46,0,0,1,2.37,2.05h.06l.11-2.48h4.9v18q0,4.72-2.81,7.26a10.41,10.41,0,0,1-7.25,2.54,14.35,14.35,0,0,1-4.92-.81,13.06,13.06,0,0,1-3.74-2Zm3.28-7.54A4.46,4.46,0,0,0,257.56,33a4.54,4.54,0,0,0,2.83-.9,5.37,5.37,0,0,0,1.71-2.07V23.94a4.78,4.78,0,0,0-1.71-2.17,4.84,4.84,0,0,0-2.87-.84,4.42,4.42,0,0,0-3.69,1.57,6.47,6.47,0,0,0-1.22,4.06v.82A6.4,6.4,0,0,0,253.84,31.44Z" transform="translate(-5.01 0)"/><path class="cls-1" d="M271.1,26.64a9.51,9.51,0,0,1,2.76-7.12,9.82,9.82,0,0,1,7.19-2.7,9.27,9.27,0,0,1,6.89,2.53,9.47,9.47,0,0,1,2.5,7v1.8H274.31V24.86h11.07v-.15a4.29,4.29,0,0,0-1-2.93A4.22,4.22,0,0,0,281,20.62a4.36,4.36,0,0,0-3.67,1.61,6.6,6.6,0,0,0-1.26,4.18v1a6.33,6.33,0,0,0,1.38,4.25,5,5,0,0,0,4,1.62,5.8,5.8,0,0,0,3-.76,6.33,6.33,0,0,0,2-1.84l3.66,2.23a7.44,7.44,0,0,1-3.24,3,11.46,11.46,0,0,1-5.45,1.2q-4.91,0-7.64-2.69a9.54,9.54,0,0,1-2.74-7.13Z" transform="translate(-5.01 0)"/><path class="cls-1" d="M297.86,30.36v.33a2.38,2.38,0,0,0,1.09,2.2,5.64,5.64,0,0,0,3,.68,5.49,5.49,0,0,0,2.89-.62,1.88,1.88,0,0,0,1-1.65,1.69,1.69,0,0,0-1-1.63,19.73,19.73,0,0,0-4.25-1.05,11.64,11.64,0,0,1-5.33-2.12,4.74,4.74,0,0,1-1.7-3.79,5,5,0,0,1,2.27-4.3A10.63,10.63,0,0,1,302,16.82a10.32,10.32,0,0,1,6.23,1.7,5.38,5.38,0,0,1,2.32,4.56v.37h-4.95v-.39a2.28,2.28,0,0,0-.91-2A4.59,4.59,0,0,0,302,20.4a5.19,5.19,0,0,0-2.6.53,1.55,1.55,0,0,0-.82,1.37,1.6,1.6,0,0,0,.95,1.47,16.94,16.94,0,0,0,4.31,1.05,11.71,11.71,0,0,1,5.42,2.06A4.72,4.72,0,0,1,311,30.77a5.4,5.4,0,0,1-2.31,4.64q-2.3,1.68-6.71,1.68a11.31,11.31,0,0,1-6.7-1.7,5.58,5.58,0,0,1-2.37-4.76v-.31Z" transform="translate(-5.01 0)"/><path class="cls-2" d="M325.76,26.21a11.89,11.89,0,0,1,6.56-1.68h4.38v-1.1a3,3,0,0,0-.8-2.24,3.88,3.88,0,0,0-2.81-.81,4.77,4.77,0,0,0-2.82.67,2,2,0,0,0-.92,1.7v.33h-5v-.37a4.93,4.93,0,0,1,2.48-4.23,11.72,11.72,0,0,1,6.56-1.64,10.56,10.56,0,0,1,6.26,1.62,5.8,5.8,0,0,1,2.25,5V32a11.87,11.87,0,0,0,.22,2.35,8.17,8.17,0,0,0,.62,1.92v.31h-5a4.28,4.28,0,0,1-.47-1.16,8.11,8.11,0,0,1-.25-1.46A5.26,5.26,0,0,1,334.59,36a9.38,9.38,0,0,1-4.28.89,8.25,8.25,0,0,1-5.09-1.51,5.27,5.27,0,0,1-2-4.47A5.31,5.31,0,0,1,325.76,26.21Zm3.44,6.43a4.07,4.07,0,0,0,2.67.73,5.35,5.35,0,0,0,3.36-1.14,3.38,3.38,0,0,0,1.47-2.71V27.7h-3.57a7,7,0,0,0-3.57.73,2.35,2.35,0,0,0-1.23,2.14A2.56,2.56,0,0,0,329.2,32.64Z" transform="translate(-5.01 0)"/><path class="cls-2" d="M346.76,17.37h4.93l.08,2.5h.09a5.8,5.8,0,0,1,2.47-2.1A8.37,8.37,0,0,1,358,17a7.34,7.34,0,0,1,5.08,1.72q1.93,1.73,1.94,6V36.56H359.9V24.8a3.86,3.86,0,0,0-.92-2.94,3.67,3.67,0,0,0-2.6-.85,4.7,4.7,0,0,0-2.66.8,5.05,5.05,0,0,0-1.8,2.17V36.56h-5.16Z" transform="translate(-5.01 0)"/><path class="cls-2" d="M368.65,26.64a10,10,0,0,1,2.44-6.94,9,9,0,0,1,10-2,6,6,0,0,1,2.33,1.88V7.47h5.1V36.56h-4.89l-.11-2.5h0a5.72,5.72,0,0,1-2.29,2.06,7.72,7.72,0,0,1-3.64.83,8.15,8.15,0,0,1-6.5-2.72,10.19,10.19,0,0,1-2.36-7Zm6.47,4.83A4.38,4.38,0,0,0,378.8,33a4.58,4.58,0,0,0,2.85-.9,5.33,5.33,0,0,0,1.71-2.08V23.82a5.16,5.16,0,0,0-1.69-2.06,4.8,4.8,0,0,0-2.87-.83,4.4,4.4,0,0,0-3.68,1.55,6.36,6.36,0,0,0-1.23,4.08v.82A6.41,6.41,0,0,0,375.12,31.47Z" transform="translate(-5.01 0)"/><path class="cls-1" d="M400,8.08h22.6v4.18H414v24.3h-5.28V12.26H400Z" transform="translate(-5.01 0)"/><path class="cls-1" d="M421.87,26.64a9.29,9.29,0,0,1,2.88-7.13,11.83,11.83,0,0,1,15,0,9.31,9.31,0,0,1,2.86,7.13v.63a9.33,9.33,0,0,1-2.86,7.13,11.83,11.83,0,0,1-15,0,9.31,9.31,0,0,1-2.88-7.13Zm5.25.78a6.11,6.11,0,0,0,1.34,4.17,4.76,4.76,0,0,0,3.8,1.55,4.81,4.81,0,0,0,3.83-1.55,6.18,6.18,0,0,0,1.34-4.19v-.92a6.07,6.07,0,0,0-1.36-4.15,4.81,4.81,0,0,0-3.81-1.54,4.75,4.75,0,0,0-3.8,1.54,6.06,6.06,0,0,0-1.34,4.15Z" transform="translate(-5.01 0)"/><path class="cls-1" d="M445.31,26.64a9.32,9.32,0,0,1,2.87-7.13,11.84,11.84,0,0,1,15,0,9.34,9.34,0,0,1,2.85,7.13v.63a9.36,9.36,0,0,1-2.85,7.13,11.84,11.84,0,0,1-15,0,9.33,9.33,0,0,1-2.87-7.13Zm5.24.78a6.16,6.16,0,0,0,1.34,4.17,5.47,5.47,0,0,0,7.63,0,6.18,6.18,0,0,0,1.34-4.19v-.92a6,6,0,0,0-1.36-4.15,4.81,4.81,0,0,0-3.81-1.54,4.75,4.75,0,0,0-3.8,1.54,6.11,6.11,0,0,0-1.34,4.15Z" transform="translate(-5.01 0)"/><path class="cls-1" d="M469.92,7.47h5.14V36.56h-5.14Z" transform="translate(-5.01 0)"/><path class="cls-1" d="M483.84,30.36v.33a2.39,2.39,0,0,0,1.1,2.2,5.63,5.63,0,0,0,3,.68,5.51,5.51,0,0,0,2.9-.62,1.88,1.88,0,0,0,1-1.65,1.69,1.69,0,0,0-1-1.63,19.71,19.71,0,0,0-4.26-1.05,11.74,11.74,0,0,1-5.33-2.12,4.77,4.77,0,0,1-1.69-3.79,5,5,0,0,1,2.27-4.3A10.59,10.59,0,0,1,488,16.82a10.32,10.32,0,0,1,6.23,1.7,5.38,5.38,0,0,1,2.32,4.56v.37h-4.95v-.39a2.28,2.28,0,0,0-.91-2A4.59,4.59,0,0,0,488,20.4a5.19,5.19,0,0,0-2.6.53,1.55,1.55,0,0,0-.82,1.37,1.6,1.6,0,0,0,1,1.47,16.94,16.94,0,0,0,4.31,1.05,11.71,11.71,0,0,1,5.42,2.06A4.75,4.75,0,0,1,497,30.77a5.4,5.4,0,0,1-2.31,4.64c-1.54,1.12-3.77,1.68-6.71,1.68a11.35,11.35,0,0,1-6.71-1.7,5.6,5.6,0,0,1-2.36-4.76v-.31Z" transform="translate(-5.01 0)"/><path class="cls-1" d="M502.06,16.87a3,3,0,0,1,2.3-.87,3.12,3.12,0,0,1,2.38.86,3,3,0,0,1,0,4.13,3,3,0,0,1-2.34.88,3,3,0,0,1-2.35-.87,3,3,0,0,1,0-4.13Zm0,15.06a3,3,0,0,1,2.3-.87,3.09,3.09,0,0,1,2.38.88,3,3,0,0,1,.81,2.1,2.92,2.92,0,0,1-.81,2.07,3.1,3.1,0,0,1-2.36.86,3.06,3.06,0,0,1-2.33-.85,2.87,2.87,0,0,1-.82-2.08A3,3,0,0,1,502.06,31.93Z" transform="translate(-5.01 0)"/></g></g></svg>